<svg xmlns="http://www.w3.org/2000/svg" viewBox="0 0 100 100">
  <defs>
    <linearGradient id="trophyGradient" x1="0%" y1="0%" x2="100%" y2="100%">
      <stop offset="0%" style="stop-color:#fde047;stop-opacity:1" />
      <stop offset="33%" style="stop-color:#f472b6;stop-opacity:1" />
      <stop offset="66%" style="stop-color:#22d3ee;stop-opacity:1" />
      <stop offset="100%" style="stop-color:#10b981;stop-opacity:1" />
    </linearGradient>
  </defs>
  
  <!-- Base do troféu -->
  <rect x="35" y="75" width="30" height="8" rx="2" fill="url(#trophyGradient)"/>
  <rect x="30" y="83" width="40" height="5" rx="2" fill="url(#trophyGradient)"/>
  
  <!-- Haste -->
  <rect x="47" y="65" width="6" height="10" fill="url(#trophyGradient)"/>
  
  <!-- Taça -->
  <path d="M 25 25 Q 25 15 35 15 L 65 15 Q 75 15 75 25 L 75 40 Q 75 60 50 65 Q 25 60 25 40 Z" 
        fill="url(#trophyGradient)" stroke="url(#trophyGradient)" stroke-width="2"/>
  
  <!-- Alças -->
  <path d="M 25 25 Q 15 25 15 35 Q 15 40 20 40 L 25 35" 
        fill="none" stroke="url(#trophyGradient)" stroke-width="4" stroke-linecap="round"/>
  <path d="M 75 25 Q 85 25 85 35 Q 85 40 80 40 L 75 35" 
        fill="none" stroke="url(#trophyGradient)" stroke-width="4" stroke-linecap="round"/>
  
  <!-- Detalhes decorativos -->
  <ellipse cx="50" cy="30" rx="15" ry="8" fill="none" stroke="rgba(255,255,255,0.3)" stroke-width="2"/>
  <circle cx="50" cy="45" r="3" fill="rgba(255,255,255,0.5)"/>
</svg>
